<svg version="1.1" id="Layer_1" xmlns="http://www.w3.org/2000/svg" xmlns:xlink="http://www.w3.org/1999/xlink" x="0px" y="0px"
	 width="100%" viewBox="0 0 496 496" enable-background="new 0 0 496 496" xml:space="preserve">
<path fill="#000000" opacity="1.000000" stroke="none" 
	d="
M122.493011,217.284821 
	C122.585815,211.521347 122.703003,206.187073 122.605423,200.856720 
	C122.551338,197.901917 123.679306,196.600876 126.698875,196.674286 
	C131.529007,196.791687 136.365601,196.778931 141.196533,196.679199 
	C144.238602,196.616409 145.338181,198.053314 145.290009,200.940628 
	C145.212158,205.605515 145.464111,210.281311 145.243439,214.936676 
	C145.070435,218.586136 146.344009,220.063843 150.092926,219.925186 
	C155.082687,219.740677 160.109711,220.291672 165.080643,219.947571 
	C170.058502,219.602997 173.065430,221.270554 175.244766,225.902969 
	C178.501724,232.825851 182.433517,239.432617 186.119247,246.151382 
	C186.979431,247.719437 188.004395,249.197083 189.439102,251.493530 
	C193.652145,242.500656 197.763474,234.378113 201.260559,225.999207 
	C203.157639,221.453827 205.818726,219.753891 210.706589,219.928467 
	C220.025543,220.261292 229.364761,220.012177 238.695465,220.039017 
	C242.072174,220.048737 245.806244,219.592499 245.435135,224.954620 
	C263.640564,215.751236 272.818298,216.597061 284.700317,228.286285 
	C287.000122,228.351990 287.999359,226.316483 289.430389,225.074463 
	C295.920929,219.441330 303.425354,217.467575 311.762482,218.997116 
	C323.928772,221.229141 330.616516,228.701416 331.075012,241.507919 
	C331.533844,254.324112 331.149506,267.169281 331.225922,280.001190 
	C331.245026,283.214203 329.882904,284.478943 326.704498,284.377075 
	C322.209320,284.233063 317.694580,284.135040 313.209900,284.393677 
	C309.174225,284.626465 308.000244,282.830811 308.021606,279.095093 
	C308.083466,268.264893 308.102478,257.428406 307.790192,246.604446 
	C307.621246,240.748245 304.229553,237.556351 298.834534,237.195679 
	C292.129730,236.747452 288.388885,239.917862 288.255920,246.744492 
	C288.051483,257.239960 287.939575,267.748199 288.244385,278.237793 
	C288.385773,283.102112 286.753296,284.824524 281.970337,284.421844 
	C277.998444,284.087433 273.966400,284.169983 269.979614,284.396210 
	C266.257660,284.607391 264.948364,283.054810 264.970428,279.452240 
	C265.036865,268.621002 265.053833,257.785431 264.808105,246.957962 
	C264.673157,241.012436 261.439331,237.682877 256.172058,237.221466 
	C249.182678,236.609192 245.362183,239.825226 245.243301,246.889465 
	C245.066635,257.386169 245.007721,267.890167 245.202713,278.385406 
	C245.285416,282.836823 243.931030,284.845764 239.209915,284.418243 
	C235.407516,284.073914 231.532150,284.106201 227.721436,284.395996 
	C223.351105,284.728363 221.822479,283.037384 221.899063,278.688690 
	C222.098587,267.359589 221.957886,256.024475 221.953201,244.691772 
	C221.952408,242.756134 221.953079,240.820496 220.925049,238.608383 
	C219.593872,241.010834 218.206909,243.384293 216.940247,245.820297 
	C205.642838,267.547180 194.277603,289.239716 183.165939,311.061340 
	C181.156555,315.007446 178.814301,316.759094 174.287216,316.477753 
	C168.034866,316.089172 161.740265,316.380280 155.636124,316.380280 
	C154.911026,313.611176 156.246918,312.141663 157.052551,310.571564 
	C162.604767,299.751160 168.123962,288.911621 173.872375,278.195496 
	C175.485321,275.188660 175.369751,272.761017 173.692764,269.877228 
	C168.249710,260.517029 163.021027,251.032455 157.669678,241.618561 
	C155.884338,238.477890 149.865707,236.820572 146.774094,238.448608 
	C145.288101,239.231155 145.306122,240.565521 145.304596,241.880234 
	C145.297607,247.879547 145.164856,253.886215 145.417694,259.875885 
	C145.616653,264.589203 147.741379,266.220032 152.208008,265.050049 
	C154.867249,264.353485 155.850845,265.160767 156.491776,267.543732 
	C157.269058,270.433655 158.328583,273.246338 159.186447,276.116211 
	C161.060913,282.386963 160.681030,283.140137 154.454086,284.875092 
	C151.248550,285.768250 147.992767,286.349365 144.610809,286.335388 
	C131.323776,286.280487 123.012604,278.297302 122.693985,264.928497 
	C122.523270,257.765991 122.493462,250.592941 122.681030,243.431992 
	C122.778816,239.698883 121.720818,237.689911 117.649330,238.068619 
	C114.135918,238.395432 112.893143,236.438812 113.020340,233.190262 
	C113.092010,231.359818 113.164307,229.513397 113.010475,227.693237 
	C112.607803,222.928879 113.368980,219.300323 119.471191,219.917282 
	C120.919243,220.063690 121.986015,219.182602 122.493011,217.284821 
z"/>
<path fill="#000000" opacity="1.000000" stroke="none" 
	d="
M354.621094,268.835022 
	C357.498901,259.913849 364.234985,255.756897 372.140106,257.665833 
	C379.725281,259.497498 384.464661,266.575897 383.204620,274.191010 
	C382.031036,281.283691 375.095917,286.717957 367.768311,286.286713 
	C359.285187,285.787537 353.448425,278.242706 354.621094,268.835022 
z"/>
</svg>